<?xml version="1.0" encoding="UTF-8"?>
<!-- Created with Inkscape (http://www.inkscape.org/) -->
<svg width="4e3" height="2666.7" version="1.1" viewBox="0 0 4e3 2666.7" xmlns="http://www.w3.org/2000/svg">
 <g transform="matrix(1.3333 0 0 -1.3333 0 2666.7)">
  <g fill="#fff">
   <g>
    <path d="m2797.3 941.12-473.19 358.53c-409.07 309.95-741.48 435.15-1831.5 64.99-59.366-20.17-56.349-146.65-71.989-217.06-16.017-72.08 17.67-61.61 97.403-39.62 1063.2 293.34 1331.6 310.44 1729.1 110.26l550.15-277.1"/>
    <path d="m735.44 533.29c-13.371 3.35-24.317 2.25-33.264-0.81-64.065-21.9-62.501 11.98-18.316 36.07 25.728 14.02 49.871-1.17 80.959-14.4 88.281-37.58 262.47-177.46 491.54-99.49 458.71 156.13 893.6 727.58 1538.7 483.86-699.64 231.97-902.43-384.19-1532.6-522.55-173.65-38.12-322.11-16.64-526.99 117.32"/>
    <path d="m527.16 623.31c734.44 904.35 1684.5-25.76 2267.9 315.21-447.6-352.46-1577.2 463.33-2258.5-321.13-25.345-29.18-63.959-61.27-9.396 5.92"/>
   </g>
   <path d="m1157.9 869.55c128.26-10.72 223.55-123.37 212.83-251.63-10.71-128.26-123.37-223.55-251.62-212.83-128.26 10.71-223.55 123.37-212.84 251.62 10.712 128.26 123.37 223.55 251.63 212.84" fill-rule="evenodd"/>
  </g>
  <path d="m1027.8 810.65c116.96 17.03 141.44-178.06 131.03-240 63.36 38.78 86.23 140.31 42.74 212.25-41.35 6.77-136.51 33.63-173.77 27.75" fill-rule="evenodd"/>
  <path d="m1287.1 727.37c25.37-31.14 39.02-69.8 35.62-110.51-7.64-91.37-98.17-158.39-202.22-149.7-73.19 6.11-133.57 48.06-160.29 104.21 31.561-38.74 81.283-65.83 138.96-70.65 104.05-8.69 194.58 58.34 202.22 149.7 2.26 27.09-3.02 53.29-14.29 76.95" fill-rule="evenodd"/>
  <path d="m1564.8 863.24c285.87-109.73 524.36-314.89 781.55-198.95 1.22 0.55-1.83-1.88-3.16-2.56-580.57-299.05-791.75-33.49-1056.2 65.64-177.09 66.41-480.83 13.47-628.01-147.56-67.5-73.85-65.487-5.8-48.011 20.94 116.59 178.41 406.55 316.54 605.52 323.32 119.46 4.08 239.48-19.07 348.26-60.83" fill="#fff"/>
 </g>
</svg>
