<?xml version="1.0" encoding="utf-8"?>
<!-- Generator: Adobe Illustrator 26.3.1, SVG Export Plug-In . SVG Version: 6.00 Build 0)  -->
<svg version="1.1" id="Layer_1" xmlns="http://www.w3.org/2000/svg" xmlns:xlink="http://www.w3.org/1999/xlink" x="0px" y="0px"
	 width="61.7px" height="15px" viewBox="0 0 61.7 15" style="enable-background:new 0 0 61.7 15;" xml:space="preserve">
<style type="text/css">
	.st0{fill-rule:evenodd;clip-rule:evenodd;}
</style>
<g>
	<g>
		<path d="M7.3,9.9c-0.3,0-0.5,0-0.8-0.1S6,9.7,5.8,9.6S5.2,9.5,5,9.4S4.4,9.2,4.2,9.1c-0.3,0.2-0.6,0.3-1,0.4S2.5,9.7,2.2,9.7
			c-0.3,0-0.6-0.1-0.7-0.2S1.2,9.3,1.2,9.1c0-0.2,0.1-0.4,0.4-0.6s0.7-0.2,1.2-0.2c0.2,0,0.5,0,0.7,0.1s0.5,0.1,0.8,0.1
			C4.6,8.3,4.8,8.1,5,7.8s0.4-0.6,0.7-0.9C5.5,7,5.3,7,5.2,7S4.9,7,4.7,7C4.1,7,3.5,6.9,3,6.8S2.2,6.4,1.8,6.2S1.2,5.6,1.1,5.3
			S0.8,4.5,0.8,4.2c0-0.5,0.1-0.9,0.3-1.2S1.5,2.2,1.8,2s0.7-0.4,1.1-0.6s0.9-0.2,1.4-0.2c0.3,0,0.6,0,0.8,0.1s0.5,0.1,0.7,0.2
			s0.3,0.1,0.4,0.2s0.2,0.1,0.2,0.1L6.3,1.9c0,0-0.1,0-0.1-0.1S5.9,1.8,5.7,1.7S5.4,1.6,5.1,1.6S4.7,1.5,4.4,1.5
			C4,1.5,3.5,1.6,3.2,1.7S2.5,2.1,2.2,2.3S1.8,2.8,1.7,3.1s-0.2,0.6-0.2,1c0,0.4,0.1,0.8,0.3,1.1S2.2,5.8,2.5,6s0.7,0.4,1.1,0.5
			s0.8,0.2,1.3,0.2c0.2,0,0.4,0,0.5,0s0.4,0,0.5-0.1c0.3-0.4,0.5-0.9,0.8-1.3s0.5-0.9,0.8-1.4S8,3,8.3,2.6s0.5-0.8,0.8-1.1
			S9.7,1,10,0.8s0.6-0.3,1-0.3c0.1,0,0.3,0,0.4,0.1s0.2,0.1,0.3,0.2s0.2,0.2,0.2,0.3S12,1.5,12,1.7c0,0.3-0.1,0.6-0.2,1
			s-0.3,0.7-0.5,1s-0.5,0.7-0.8,1S9.8,5.3,9.4,5.5S8.5,6.1,8.1,6.3s-1,0.4-1.5,0.5C6.3,7.1,6,7.5,5.7,7.8S5.2,8.4,4.9,8.7
			c0.3,0.1,0.6,0.2,0.9,0.2s0.6,0.2,0.8,0.2S7,9.3,7.2,9.3s0.4,0.1,0.6,0.1c0.2,0,0.5,0,0.7-0.1S9,9,9.2,8.8L9.5,9c0,0,0,0-0.1,0.1
			S9.3,9.2,9.2,9.2S9.1,9.4,9,9.4S8.7,9.6,8.5,9.6S8.2,9.8,8,9.8C7.8,9.8,7.6,9.9,7.3,9.9z M2.1,9.4c0.3,0,0.6,0,0.8-0.1
			S3.5,9.1,3.7,9C3.4,8.9,3.2,8.8,3,8.8S2.5,8.7,2.3,8.7c-0.3,0-0.5,0-0.6,0.1S1.5,9,1.5,9.1c0,0,0,0.1,0,0.1s0,0.1,0.1,0.1
			s0.1,0.1,0.2,0.1S2,9.4,2.1,9.4z M11,0.9c-0.2,0-0.4,0.1-0.7,0.2S9.9,1.5,9.7,1.7S9.3,2.3,9.1,2.7S8.6,3.4,8.4,3.8
			S7.9,4.7,7.6,5.1S7.1,6,6.8,6.4c0.5-0.1,0.9-0.3,1.3-0.5C8.6,5.7,9,5.4,9.3,5.2s0.7-0.5,1-0.8s0.5-0.6,0.7-0.9s0.4-0.6,0.5-0.9
			s0.2-0.6,0.2-0.9c0-0.1,0-0.3-0.1-0.4s-0.1-0.2-0.1-0.2s-0.1-0.1-0.2-0.1S11.1,0.9,11,0.9z"/>
		<path d="M12.1,7.8C12,8,11.8,8.2,11.6,8.4s-0.4,0.3-0.5,0.5s-0.3,0.2-0.5,0.3S10.2,9.3,10,9.3c-0.1,0-0.3,0-0.4-0.1S9.4,9.1,9.3,9
			S9.2,8.8,9.1,8.6S9.1,8.3,9.1,8.2c0-0.3,0.1-0.5,0.2-0.8s0.3-0.6,0.5-0.8s0.4-0.5,0.6-0.8s0.4-0.5,0.6-0.6l0.3,0.2
			C11,5.5,10.9,5.7,10.7,6s-0.3,0.5-0.5,0.8S9.9,7.3,9.8,7.6S9.7,8.1,9.7,8.4c0,0.2,0,0.3,0.1,0.4S9.9,9,10.1,9
			c0.2,0,0.4-0.1,0.6-0.2s0.5-0.3,0.7-0.6s0.5-0.5,0.7-0.8s0.5-0.6,0.7-0.9s0.4-0.6,0.6-0.9s0.3-0.5,0.4-0.7l0.4,0.2
			c-0.2,0.4-0.4,0.9-0.7,1.2s-0.4,0.7-0.6,1s-0.3,0.6-0.4,0.8s-0.1,0.4-0.1,0.5c0,0.1,0,0.1,0,0.1s0.1,0.1,0.1,0.1
			c0.1,0,0.3-0.1,0.5-0.2s0.3-0.3,0.5-0.5s0.4-0.4,0.5-0.6s0.3-0.5,0.5-0.7l0.2,0.2c0,0-0.1,0.1-0.1,0.2s-0.2,0.3-0.3,0.4
			S14.2,8.1,14,8.2s-0.3,0.3-0.4,0.5S13.3,9,13.1,9.1s-0.3,0.1-0.5,0.1c-0.1,0-0.2,0-0.3-0.1S12.2,9.1,12.1,9S12,8.9,12,8.8
			s0-0.2,0-0.2c0-0.1,0-0.2,0-0.3S12.1,8,12.1,7.8z"/>
		<path d="M17.7,5.3c0-0.1,0-0.2-0.1-0.3s-0.3-0.1-0.5-0.1c-0.2,0-0.4,0-0.5,0.1s-0.3,0.2-0.5,0.3s-0.3,0.3-0.5,0.5
			s-0.3,0.4-0.4,0.6S15,6.9,15,7.1s-0.1,0.5-0.1,0.7c0,0.2,0,0.4,0.1,0.5s0.1,0.2,0.2,0.3s0.2,0.1,0.3,0.2s0.2,0.1,0.4,0.1
			c0.3,0,0.5-0.1,0.8-0.2s0.5-0.3,0.7-0.5s0.4-0.4,0.6-0.6s0.4-0.5,0.5-0.7l0.2,0.2C18.4,7.4,18.2,7.7,18,8s-0.5,0.5-0.7,0.7
			S16.7,9,16.5,9.1S16,9.2,15.7,9.2c-0.2,0-0.4,0-0.6-0.1S14.8,9,14.7,8.9s-0.2-0.3-0.3-0.5S14.3,8,14.3,7.7c0-0.3,0-0.6,0.1-0.9
			s0.2-0.5,0.4-0.8s0.3-0.4,0.5-0.6s0.4-0.3,0.6-0.5s0.4-0.2,0.6-0.3s0.4-0.1,0.6-0.1c0.2,0,0.3,0,0.5,0.1s0.2,0.1,0.3,0.2
			S18,5.1,18,5.1s0,0.2,0,0.2c0,0.1,0,0.2,0,0.3s-0.1,0.2-0.1,0.3s-0.1,0.2-0.2,0.2s-0.2,0.1-0.2,0.1s-0.2,0-0.2-0.1
			S17.1,6,17.1,5.9c0,0,0,0,0-0.1s0-0.1,0.1-0.1s0.1-0.1,0.1-0.1s0.2-0.1,0.3-0.1h0.1C17.7,5.5,17.7,5.4,17.7,5.3z"/>
		<path d="M20,7.6c-0.1,0.2-0.3,0.4-0.4,0.6s-0.3,0.3-0.5,0.4s-0.3,0.2-0.5,0.2c-0.1,0-0.2,0-0.2-0.1s-0.1-0.1-0.1-0.2
			c0-0.1,0-0.3,0.1-0.5s0.1-0.4,0.2-0.6s0.2-0.4,0.3-0.6s0.2-0.4,0.3-0.6s0.2-0.4,0.3-0.5s0.2-0.3,0.2-0.4l-0.2-0.1
			c-0.2,0.2-0.4,0.4-0.6,0.7s-0.4,0.5-0.6,0.8S18,7.2,17.9,7.5S17.7,8,17.7,8.3c0,0.2,0.1,0.4,0.2,0.5s0.3,0.2,0.5,0.2
			c0.2,0,0.5-0.1,0.7-0.2s0.4-0.3,0.6-0.5s0.3-0.4,0.5-0.6s0.3-0.4,0.4-0.7l-0.2-0.2C20.2,7.1,20.1,7.4,20,7.6z"/>
		<path d="M24.8,5.2c-0.1,0.1-0.1,0.2-0.2,0.4s-0.2,0.3-0.3,0.5S24.1,6.5,24,6.8s-0.2,0.4-0.3,0.6S23.5,7.8,23.5,8s-0.1,0.3-0.1,0.5
			s0,0.2,0.1,0.2s0.1,0.1,0.2,0.1c0.1,0,0.2,0,0.3-0.1s0.2-0.2,0.4-0.3s0.2-0.2,0.3-0.4s0.2-0.3,0.3-0.4s0.2-0.3,0.3-0.4
			s0.1-0.2,0.2-0.3l0.2,0.2c-0.1,0.1-0.1,0.3-0.2,0.4s-0.2,0.3-0.3,0.4s-0.2,0.3-0.3,0.4s-0.3,0.3-0.4,0.4S24.1,8.9,24,9
			s-0.3,0.1-0.5,0.1c-0.2,0-0.4-0.1-0.5-0.2s-0.2-0.3-0.2-0.5c0,0,0,0,0-0.1s0-0.1,0-0.1c-0.2,0.2-0.4,0.4-0.6,0.6S21.9,9,21.8,9.1
			s-0.3,0.2-0.5,0.2S21,9.3,20.8,9.3c-0.1,0-0.3,0-0.4-0.1S20.2,9.1,20.1,9s-0.2-0.2-0.2-0.3s-0.1-0.3-0.1-0.5c0-0.2,0-0.5,0.1-0.8
			s0.3-0.6,0.5-0.9c0.2-0.3,0.4-0.5,0.7-0.7s0.5-0.4,0.7-0.5s0.4-0.2,0.6-0.3S22.8,5,23,5c0.4,0,0.6,0.1,0.8,0.2s0.3,0.3,0.3,0.5
			c0.1-0.1,0.2-0.2,0.2-0.3s0.2-0.2,0.3-0.3L24.8,5.2z M23,7.4c0.1-0.1,0.1-0.2,0.2-0.3s0.2-0.3,0.2-0.4s0.2-0.3,0.2-0.4
			s0.1-0.2,0.2-0.3c0,0,0-0.1,0-0.2s0-0.2-0.1-0.2s-0.1-0.1-0.2-0.2s-0.2-0.1-0.4-0.1c-0.1,0-0.3,0-0.4,0.1s-0.3,0.1-0.5,0.2
			S22,5.8,21.8,5.9s-0.4,0.3-0.5,0.5c-0.3,0.3-0.5,0.6-0.6,1S20.4,8,20.4,8.3c0,0.2,0.1,0.4,0.2,0.5S20.8,9,21,9
			c0.2,0,0.4,0,0.6-0.1s0.4-0.2,0.5-0.4s0.3-0.3,0.5-0.5S22.9,7.6,23,7.4z"/>
		<path d="M43,11.1c0,0-0.1,0-0.2,0.1s-0.2,0.1-0.4,0.2s-0.3,0.1-0.5,0.1s-0.4,0.1-0.6,0.1c-0.3,0-0.7-0.1-0.9-0.2s-0.5-0.3-0.7-0.5
			s-0.3-0.5-0.4-0.8s-0.2-0.7-0.2-1c0-0.4,0-0.8,0.1-1.2s0.2-0.9,0.4-1.3s0.3-0.9,0.5-1.4s0.4-0.9,0.6-1.3S41,3,41.2,2.7
			s0.3-0.6,0.4-0.9c-0.2,0.2-0.5,0.5-0.8,0.9S40.3,3.3,40,3.7S39.3,4.5,39,5s-0.7,0.9-1,1.4s-0.7,1-1,1.5s-0.7,1-1,1.5l-0.3-0.1
			c0.1-0.6,0.2-1.3,0.3-1.9s0.3-1.2,0.5-1.8s0.3-1.1,0.5-1.6s0.4-1,0.5-1.4c-0.3,0.4-0.5,0.7-0.8,1.2S36.2,4.5,35.9,5
			s-0.5,0.9-0.8,1.3s-0.6,0.9-0.9,1.3s-0.6,0.8-1,1.2s-0.7,0.7-1.1,0.9c-0.4,0.3-0.8,0.5-1.2,0.6s-0.9,0.2-1.4,0.2
			c-0.4,0-0.7-0.1-1-0.2s-0.6-0.3-0.8-0.5s-0.4-0.4-0.5-0.7s-0.2-0.6-0.2-0.9c0-0.3,0-0.6,0.1-0.8s0.2-0.5,0.4-0.7s0.3-0.4,0.6-0.5
			s0.4-0.3,0.7-0.3s0.5-0.2,0.7-0.2s0.5-0.1,0.7-0.1c0.5,0,0.9,0.1,1.3,0.2s0.8,0.3,1.2,0.6l-0.2,0.2c0,0-0.1,0-0.2-0.1
			s-0.2-0.1-0.4-0.2c-0.2-0.1-0.4-0.2-0.7-0.2s-0.6-0.1-0.9-0.1c-0.3,0-0.7,0-1,0.1s-0.6,0.2-0.8,0.4S28.1,7,27.9,7.3
			s-0.2,0.6-0.2,1c0,0.3,0.1,0.5,0.2,0.7s0.2,0.4,0.4,0.6S28.7,9.9,29,10s0.5,0.1,0.9,0.1c0.5,0,0.9-0.1,1.3-0.3S32,9.4,32.4,9
			s0.8-0.7,1.2-1.2s0.7-0.9,1.1-1.4s0.7-1,1-1.6s0.6-1,0.9-1.5s0.6-1,0.9-1.4s0.6-0.8,0.8-1.1L38.5,1c-0.2,0.5-0.3,1-0.4,1.4
			s-0.2,0.7-0.3,1S37.6,4,37.5,4.2s-0.1,0.4-0.2,0.6s-0.1,0.3-0.1,0.5s-0.1,0.3-0.1,0.4S37,5.9,37,6.1s-0.1,0.3-0.2,0.5
			S36.7,7,36.6,7.3s-0.2,0.6-0.3,0.9c0.3-0.5,0.7-1,1-1.5s0.7-0.9,1-1.4s0.7-0.9,1-1.3s0.6-0.8,0.9-1.1s0.6-0.7,0.8-1
			s0.5-0.5,0.6-0.7s0.3-0.4,0.4-0.5s0.2-0.2,0.2-0.2l0.2,0.2c-0.2,0.6-0.5,1.1-0.7,1.7s-0.4,1.1-0.7,1.7s-0.4,1.1-0.6,1.6
			s-0.3,1-0.5,1.4S39.9,8,39.9,8.4S39.7,9,39.7,9.3c0,0.3,0,0.6,0.1,0.8s0.2,0.5,0.3,0.6s0.3,0.3,0.5,0.4s0.4,0.1,0.7,0.1
			c0.2,0,0.4,0,0.6-0.1s0.3-0.1,0.5-0.1s0.3-0.1,0.3-0.1s0.1-0.1,0.1-0.1L43,11.1z"/>
		<path d="M44.1,7.5C44.2,7.5,44.2,7.5,44.1,7.5C44.2,7.5,44.2,7.5,44.1,7.5c0.2,0,0.3,0,0.4,0s0.2-0.1,0.2-0.1s0.1-0.1,0.2-0.2
			s0.1-0.2,0.2-0.3l0.2,0.2c-0.2,0.3-0.4,0.5-0.6,0.6s-0.4,0.2-0.6,0.2c-0.1,0-0.2,0-0.2,0c-0.2,0.3-0.3,0.5-0.5,0.7
			S43.1,8.8,42.9,9s-0.4,0.2-0.6,0.3s-0.4,0.1-0.5,0.1c-0.2,0-0.3,0-0.5-0.1S41,9.1,40.9,9s-0.2-0.2-0.2-0.4S40.5,8.2,40.5,8
			s0-0.4,0.1-0.6s0.1-0.4,0.3-0.6s0.2-0.4,0.4-0.6s0.3-0.4,0.5-0.5s0.3-0.3,0.5-0.4s0.4-0.2,0.5-0.3L43,5.2
			c-0.2,0.1-0.4,0.3-0.6,0.6S42,6.3,41.8,6.6s-0.3,0.5-0.4,0.8S41.2,8,41.2,8.2c0,0.2,0.1,0.4,0.2,0.6S41.6,9,41.8,9
			c0.2,0,0.3,0,0.5-0.1s0.3-0.2,0.5-0.3s0.3-0.3,0.5-0.4s0.3-0.3,0.4-0.5c-0.1-0.1-0.2-0.2-0.3-0.3S43.3,7.2,43.2,7
			s-0.1-0.3-0.1-0.5s0-0.3,0-0.5s0-0.3,0.1-0.5s0.1-0.3,0.2-0.4s0.2-0.2,0.3-0.3s0.2-0.1,0.3-0.1c0.1,0,0.2,0,0.3,0.1
			s0.2,0.1,0.2,0.2s0.1,0.2,0.1,0.4s0,0.3,0,0.4c0,0.1,0,0.2,0,0.4s0,0.3-0.1,0.4S44.4,7,44.3,7.1S44.2,7.4,44.1,7.5z M43.3,6
			c0,0.1,0,0.2,0,0.4s0.1,0.3,0.1,0.4s0.1,0.2,0.2,0.3s0.1,0.2,0.2,0.3C44,7.3,44,7.1,44.1,7s0.1-0.3,0.1-0.4s0.1-0.3,0.1-0.4
			s0-0.2,0-0.3c0-0.1,0-0.2,0-0.3s0-0.2-0.1-0.3S44.1,5.2,44,5.2s-0.1-0.1-0.2-0.1c-0.1,0-0.2,0-0.2,0.1s-0.1,0.1-0.2,0.2
			s-0.1,0.2-0.1,0.3S43.3,5.9,43.3,6z"/>
		<path d="M50.1,6.1c0,0.2,0,0.3-0.1,0.5s-0.1,0.3-0.2,0.5s-0.2,0.3-0.3,0.5s-0.2,0.3-0.3,0.5S49.1,8.4,49,8.5s-0.1,0.3-0.1,0.4
			c0,0.1,0,0.2,0.1,0.2s0.1,0,0.1,0c0.1,0,0.3-0.1,0.5-0.2s0.4-0.3,0.6-0.6s0.4-0.5,0.6-0.7s0.4-0.5,0.5-0.7l0.2,0.2
			c0,0-0.1,0.1-0.2,0.3S51.1,7.7,51,7.8s-0.3,0.4-0.4,0.6s-0.3,0.4-0.5,0.5s-0.3,0.3-0.5,0.4S49.2,9.5,49,9.5c-0.1,0-0.2,0-0.3-0.1
			s-0.2-0.1-0.2-0.1s-0.1-0.1-0.1-0.2s-0.1-0.2-0.1-0.3c0-0.2,0-0.3,0.1-0.5s0.2-0.4,0.3-0.5s0.2-0.4,0.3-0.6s0.2-0.4,0.3-0.5
			s0.2-0.3,0.3-0.5s0.1-0.3,0.1-0.4c0-0.1,0-0.2-0.1-0.3s-0.2-0.1-0.3-0.1c-0.1,0-0.3,0.1-0.4,0.2S48.5,5.8,48.3,6s-0.4,0.4-0.7,0.7
			s-0.5,0.6-0.8,1c-0.2,0.2-0.3,0.4-0.5,0.6c-0.1,0.1-0.1,0.2-0.2,0.3S46.1,8.8,46,8.9S45.9,9,45.8,9.1s-0.1,0.1-0.2,0.2l-0.5-0.2
			l0.7-0.9C45.9,8,46,7.9,46.1,7.7s0.2-0.3,0.3-0.5s0.2-0.3,0.3-0.5s0.2-0.3,0.3-0.5c0.1-0.2,0.2-0.4,0.2-0.6s0.1-0.3,0.1-0.4
			c0-0.1,0-0.2-0.1-0.2s-0.1,0-0.2,0c-0.1,0-0.2,0-0.3,0.1s-0.2,0.2-0.3,0.3s-0.2,0.3-0.3,0.4S46,6.2,45.9,6.3s-0.2,0.3-0.3,0.4
			S45.5,7,45.4,7.1l-0.2-0.2c0.2-0.3,0.4-0.6,0.5-0.9s0.3-0.5,0.5-0.7s0.3-0.3,0.4-0.4s0.3-0.2,0.5-0.2c0.1,0,0.2,0,0.2,0.1
			s0.2,0.1,0.2,0.2s0.1,0.2,0.1,0.2s0.1,0.2,0.1,0.3c0,0.1,0,0.2,0,0.3c0.2-0.2,0.3-0.3,0.5-0.4s0.3-0.2,0.4-0.3s0.2-0.1,0.3-0.1
			s0.2,0,0.3,0c0.1,0,0.2,0,0.3,0s0.2,0.1,0.3,0.2S50,5.4,50,5.6S50.1,5.9,50.1,6.1z"/>
		<path d="M53.3,8.9C53,9,52.8,9.2,52.6,9.2S52.2,9.4,52,9.4c-0.1,0-0.3,0-0.4-0.1s-0.3-0.1-0.4-0.2s-0.2-0.2-0.3-0.4
			s-0.1-0.4-0.1-0.6c0-0.3,0.1-0.6,0.2-0.8s0.2-0.5,0.4-0.8s0.4-0.4,0.6-0.6s0.5-0.4,0.7-0.5s0.5-0.2,0.7-0.3s0.5-0.1,0.7-0.1
			c0.2,0,0.4,0,0.5,0.1s0.2,0.1,0.3,0.2S55,5.3,55,5.3s0.1,0.1,0.1,0.2l0.3-0.4l0.2,0.1c0,0,0,0.1-0.1,0.2s-0.1,0.3-0.2,0.5
			S55.1,6.3,55,6.6s-0.3,0.6-0.4,0.9s-0.3,0.6-0.4,0.9S53.8,9,53.7,9.3c0.4-0.2,0.7-0.4,0.9-0.6s0.5-0.4,0.7-0.6s0.4-0.4,0.6-0.6
			s0.3-0.4,0.5-0.7l0.2,0.2c-0.2,0.3-0.3,0.5-0.5,0.7s-0.4,0.4-0.6,0.6S55,8.9,54.6,9.1s-0.7,0.5-1.2,0.7c-0.4,0.9-0.7,1.7-1.1,2.3
			s-0.7,1.1-1,1.4s-0.6,0.6-0.9,0.7s-0.5,0.2-0.7,0.2c-0.1,0-0.2,0-0.3,0s-0.2-0.1-0.3-0.1s-0.2-0.1-0.2-0.3S49,13.8,49,13.6
			c0-0.3,0.1-0.7,0.3-1s0.4-0.6,0.8-1s0.7-0.6,1.2-0.9s1-0.6,1.6-0.9c0.1-0.2,0.1-0.3,0.2-0.5S53.2,9,53.3,8.9z M49.9,14.1
			c0.1,0,0.3-0.1,0.5-0.2s0.3-0.3,0.5-0.4s0.3-0.4,0.5-0.7s0.3-0.5,0.5-0.8s0.3-0.6,0.4-0.9s0.3-0.6,0.4-0.9c-0.6,0.3-1.1,0.6-1.5,1
			s-0.7,0.6-1,0.9s-0.5,0.6-0.6,0.8s-0.2,0.4-0.2,0.6c0,0.2,0,0.3,0.1,0.4S49.7,14.1,49.9,14.1z M53.6,8.3c0.1-0.2,0.2-0.4,0.3-0.6
			s0.2-0.4,0.3-0.6s0.2-0.4,0.4-0.6s0.3-0.4,0.4-0.6c0-0.1,0-0.1-0.1-0.2s-0.1-0.1-0.1-0.2s-0.1-0.1-0.2-0.1s-0.2-0.1-0.3-0.1
			c-0.1,0-0.3,0-0.5,0.1s-0.3,0.1-0.5,0.2s-0.4,0.2-0.6,0.3s-0.4,0.3-0.6,0.5c-0.3,0.3-0.5,0.6-0.6,1S51.3,8,51.3,8.3
			c0,0.3,0.1,0.4,0.2,0.6S51.8,9,52,9c0.2,0,0.5-0.1,0.7-0.2S53.3,8.5,53.6,8.3z"/>
		<path d="M56.6,7.8c0,0,0,0.1,0,0.1s0,0.1,0,0.1c0,0.1,0,0.3,0.1,0.4s0.1,0.2,0.2,0.3S57,9,57.2,9s0.3,0.1,0.4,0.1
			c0.5,0,1-0.2,1.5-0.5s1-0.9,1.4-1.7l0.2,0.2c-0.3,0.4-0.5,0.8-0.8,1.1s-0.5,0.5-0.8,0.7s-0.5,0.3-0.8,0.4s-0.5,0.1-0.7,0.1
			c-0.2,0-0.3,0-0.5-0.1s-0.4-0.1-0.5-0.2s-0.3-0.3-0.4-0.4S56,8.3,56,8c0-0.3,0-0.6,0.1-0.8s0.2-0.5,0.4-0.8s0.3-0.4,0.6-0.6
			s0.4-0.4,0.6-0.5s0.4-0.2,0.6-0.3s0.4-0.1,0.5-0.1c0.1,0,0.2,0,0.3,0s0.2,0.1,0.3,0.1s0.2,0.2,0.2,0.3s0.1,0.2,0.1,0.4
			c0,0.2,0,0.4-0.1,0.6s-0.2,0.3-0.4,0.5S58.9,7,58.7,7.2S58.2,7.4,58,7.5s-0.5,0.2-0.7,0.2S56.9,7.8,56.6,7.8z M56.7,7.5
			c0.3,0,0.5-0.1,0.7-0.2s0.4-0.2,0.6-0.3s0.4-0.2,0.5-0.4s0.3-0.3,0.4-0.4s0.2-0.3,0.2-0.4s0.1-0.3,0.1-0.4s0-0.2-0.1-0.3
			S59.1,5.1,59,5.1c-0.2,0-0.4,0.1-0.6,0.2S58,5.6,57.8,5.8s-0.4,0.5-0.6,0.8S56.8,7.2,56.7,7.5z"/>
	</g>
	<g>
		<g transform="matrix(0.37964,-0.0479085,0.0250011,0.639695,1107.4,143.236)">
			<path class="st0" d="M-2823.8-430.9c0,0-2.8-1.9-6.6-1.5c-3.1,0.3-5.1,1.9-5.5,2.5c0,0,1.3-2.8,5.1-3.3c4.8-0.5,8.5,1.8,8.5,1.8
				L-2823.8-430.9z"/>
		</g>
		<g transform="matrix(0.341938,-0.131761,0.0717891,0.627588,1152.75,309.517)">
			<path class="st0" d="M-3062.3-1132.7c0,0,1.7,0.1,2.8-1.1c0,0-1.9,1.3-4.7,0.4L-3062.3-1132.7z"/>
		</g>
		<g transform="matrix(0.349392,0,0,0.641271,1172.22,71.446)">
			<path class="st0" d="M-3284.6-106.9c0,0,2.9-0.4,3.9-1.4c0,0-2.1,1.2-4.3,0.2L-3284.6-106.9z"/>
		</g>
		<g transform="matrix(0.349392,0,0,0.641271,1174.96,73.1563)">
			<path class="st0" d="M-3292.4-110.3c0,0,1.7,0,3.1-1.3c0,0-2.2,1.5-4.9,0.8L-3292.4-110.3z"/>
		</g>
		<g transform="matrix(0.342474,-0.126986,0.0691877,0.628572,1143.05,293.205)">
			<path class="st0" d="M-3049.8-1079.5c0,0,1.7,0.1,2.9-1.1c0,0-1.9,1.3-4.7,0.4L-3049.8-1079.5z"/>
		</g>
		<g transform="matrix(0.33054,-0.207799,0.113218,0.606669,1136.68,443.841)">
			<path class="st0" d="M-2791-1684.6c0,0,1.6,0.2,2.6-1c0,0-1.7,1.3-4.5,0.2L-2791-1684.6z"/>
		</g>
		<g transform="matrix(0.312972,-0.285069,0.155318,0.574424,1138.92,600.266)">
			<path class="st0" d="M-2446.5-2255.9c0,0,1.5,0.3,2.4-1c0,0-1.5,1.3-4.2,0L-2446.5-2255.9z"/>
		</g>
		<g transform="matrix(0.261357,-0.405525,0.175088,0.380127,1212.36,904.713)">
			<path class="st0" d="M-1727.8-4218.2c0,0,1.4,0.4,2.1-0.9c0,0-1.3,1.3-3.7-0.3L-1727.8-4218.2z"/>
		</g>
		<g transform="matrix(0.207638,-0.474647,0.180421,0.211347,1297.23,1111.12)">
			<path class="st0" d="M-536.6-6452.1c0,0,1.2,0.5,1.9-0.9c0,0-1.2,1.5-3.3-0.5L-536.6-6452.1z"/>
		</g>
	</g>
</g>
</svg>
